<svg xmlns="http://www.w3.org/2000/svg" xmlns:xlink="http://www.w3.org/1999/xlink" version="1.0" x="0" y="0" width="2400" height="1300.9222196115368" viewBox="49.058604125976565 59.44360244750977 241.88279937744142 131.11279510498048" preserveAspectRatio="xMidYMid meet" color-interpolation-filters="sRGB"><g><defs><linearGradient id="92" x1="0%" y1="0%" x2="100%" y2="0%"><stop offset="0%" stop-color="#fa71cd"></stop> <stop offset="100%" stop-color="#9b59b6"></stop></linearGradient><linearGradient id="93" x1="0%" y1="0%" x2="100%" y2="0%"><stop offset="0%" stop-color="#f9d423"></stop> <stop offset="100%" stop-color="#f83600"></stop></linearGradient><linearGradient id="94" x1="0%" y1="0%" x2="100%" y2="0%"><stop offset="0%" stop-color="#0064d2"></stop> <stop offset="100%" stop-color="#1cb0f6"></stop></linearGradient><linearGradient id="95" x1="0%" y1="0%" x2="100%" y2="0%"><stop offset="0%" stop-color="#f00978"></stop> <stop offset="100%" stop-color="#3f51b1"></stop></linearGradient><linearGradient id="96" x1="0%" y1="0%" x2="100%" y2="0%"><stop offset="0%" stop-color="#7873f5"></stop> <stop offset="100%" stop-color="#ec77ab"></stop></linearGradient><linearGradient id="97" x1="0%" y1="0%" x2="100%" y2="0%"><stop offset="0%" stop-color="#f9d423"></stop> <stop offset="100%" stop-color="#e14fad"></stop></linearGradient><linearGradient id="98" x1="0%" y1="0%" x2="100%" y2="0%"><stop offset="0%" stop-color="#009efd"></stop> <stop offset="100%" stop-color="#2af598"></stop></linearGradient><linearGradient id="99" x1="0%" y1="0%" x2="100%" y2="0%"><stop offset="0%" stop-color="#ffcc00"></stop> <stop offset="100%" stop-color="#00b140"></stop></linearGradient><linearGradient id="100" x1="0%" y1="0%" x2="100%" y2="0%"><stop offset="0%" stop-color="#d51007"></stop> <stop offset="100%" stop-color="#ff8177"></stop></linearGradient><linearGradient id="102" x1="0%" y1="0%" x2="100%" y2="0%"><stop offset="0%" stop-color="#a2b6df"></stop> <stop offset="100%" stop-color="#0c3483"></stop></linearGradient><linearGradient id="103" x1="0%" y1="0%" x2="100%" y2="0%"><stop offset="0%" stop-color="#7ac5d8"></stop> <stop offset="100%" stop-color="#eea2a2"></stop></linearGradient><linearGradient id="104" x1="0%" y1="0%" x2="100%" y2="0%"><stop offset="0%" stop-color="#00ecbc"></stop> <stop offset="100%" stop-color="#007adf"></stop></linearGradient><linearGradient id="105" x1="0%" y1="0%" x2="100%" y2="0%"><stop offset="0%" stop-color="#b88746"></stop> <stop offset="100%" stop-color="#fdf5a6"></stop></linearGradient></defs><g fill="#405B72" class="bordersvg b-d1" transform="translate(51.43000030517578,61.81500244140625)"><polyline stroke="#405B72" stroke-width="3" fill-opacity="0" points="118.56999969482422,20 118.56999969482422,0 0,0 0,126.3699951171875 118.56999969482422,126.3699951171875 118.56999969482422,106.3699951171875"></polyline> <g transform="translate(0,20)"><g><rect stroke-width="2" class="i-icon-bg" x="0" y="0" width="237.13999938964844" height="86.3699951171875" fill-opacity="0"></rect> </g> <g transform="translate(10,3)"><g fill-rule="" class="tp-name"><g transform="scale(1)"><g><path d="M29.59-43.65L29.59-43.65Q24.56-43.02 20.51-40.8 16.46-38.57 13.6-35.03 10.74-31.49 9.2-26.81 7.67-22.12 7.67-16.55L7.67-16.55Q7.67-8.45 11.04-4.54 14.4-0.63 21.34-0.63L21.34-0.63Q25.98-0.63 30.64-2.25 35.3-3.86 39.65-6.91 43.99-9.96 47.92-14.38 51.86-18.8 55.03-24.46L55.03-24.46 57.57-28.96 58.84-28.03 56.35-23.54Q52.83-17.19 48.66-12.45 44.48-7.71 39.87-4.54 35.25-1.37 30.25 0.22 25.24 1.81 20.12 1.81L20.12 1.81Q15.43 1.81 11.72 0.44 8.01-0.93 5.4-3.49 2.78-6.05 1.39-9.69 0-13.33 0-17.82L0-17.82Q0-23.24 2-27.83 4-32.42 7.59-35.86 11.18-39.31 16.21-41.48 21.24-43.65 27.29-44.19L27.29-44.19Q23.63-46.24 21.68-49.76 19.73-53.27 19.73-57.71L19.73-57.71Q19.73-62.01 21.53-65.82 23.34-69.63 26.44-72.46 29.54-75.29 33.69-76.93 37.84-78.56 42.53-78.56L42.53-78.56Q45.51-78.56 48.02-77.73 50.54-76.9 52.37-75.39 54.2-73.88 55.2-71.8 56.2-69.73 56.2-67.24L56.2-67.24Q56.2-62.55 53.3-58.76 50.39-54.98 45.46-52.15L45.46-52.15 44.78-53.61Q46.68-54.69 48.19-56.2 49.71-57.71 50.76-59.55 51.81-61.38 52.39-63.45 52.98-65.53 52.98-67.68L52.98-67.68Q52.98-72.07 50.66-74.37 48.34-76.66 43.99-76.66L43.99-76.66Q40.19-76.66 36.79-74.93 33.4-73.19 30.86-70.24 28.32-67.29 26.83-63.35 25.34-59.42 25.34-55.03L25.34-55.03Q25.34-51.22 26.46-48.46 27.59-45.7 29.64-44.53L29.64-44.53Q29.88-44.63 30.42-44.73 30.96-44.82 31.45-44.82L31.45-44.82Q32.81-44.82 32.81-44.14L32.81-44.14Q32.81-43.36 31.4-43.36L31.4-43.36Q30.91-43.36 30.42-43.46 29.93-43.55 29.59-43.65ZM115.63-58.45L116.94-56.49 71.19-9.03Q72.22-9.47 73.44-9.74 74.66-10.01 76.07-10.01L76.07-10.01Q78.27-10.01 80.69-9.52 83.11-9.03 85.57-8.3 88.04-7.57 90.41-6.74 92.77-5.91 94.9-5.18 97.02-4.44 98.78-3.96 100.54-3.47 101.76-3.47L101.76-3.47Q102.93-3.47 103.98-3.61 105.03-3.76 106.05-4.13 107.08-4.49 108.08-5.15 109.08-5.81 110.16-6.79L110.16-6.79Q113.09-9.57 116.28-13.94 119.48-18.31 123.14-24.46L123.14-24.46 125.83-28.96 127.1-28.03 124.41-23.54Q120.56-17.04 117.38-12.5 114.21-7.96 111.13-5.03L111.13-5.03Q109.23-3.22 107.4-2.05 105.57-0.88 103.66-0.22 101.76 0.44 99.66 0.68 97.56 0.93 95.07 0.93L95.07 0.93Q93.21 0.93 91.11 0.46 89.01 0 86.84-0.71 84.67-1.42 82.47-2.25 80.27-3.08 78.13-3.78 75.98-4.49 73.95-4.96 71.92-5.42 70.12-5.42L70.12-5.42Q68.85-5.42 68.04-5.05 67.24-4.69 66.43-3.91 65.63-3.13 64.53-1.93 63.43-0.73 61.57 0.93L61.57 0.93 60.45-0.93 109.67-52.34Q106.54-50.34 103.54-49.17 100.54-48 97.51-48L97.51-48Q95.7-48 93.85-48.46 91.99-48.93 90.14-49.63 88.28-50.34 86.55-51.17 84.81-52 83.33-52.71 81.84-53.42 80.62-53.88 79.39-54.35 78.61-54.35L78.61-54.35Q77.39-54.35 75.59-52.81 73.78-51.27 71.51-48.36 69.24-45.46 66.53-41.21 63.82-36.96 60.79-31.54L60.79-31.54 58.2-27 56.93-27.88 59.52-32.47Q63.48-39.55 66.6-44.56 69.73-49.56 72.46-52.76 75.2-55.96 77.81-57.45 80.42-58.94 83.4-58.94L83.4-58.94Q86.13-58.94 88.62-57.93 91.11-56.93 93.53-55.76 95.95-54.59 98.36-53.59 100.78-52.59 103.42-52.59L103.42-52.59Q105.96-52.59 108.94-53.86 111.91-55.13 115.63-58.45L115.63-58.45ZM142.53 0.93L142.53 0.93Q133.69 0.93 128.91-3.69 124.12-8.3 124.12-17.43L124.12-17.43Q124.12-19.92 124.49-22.71 124.85-25.49 125.63-28.42L125.63-28.42Q127.39-34.96 130.59-40.53 133.79-46.09 137.94-50.15 142.09-54.2 146.88-56.49 151.66-58.79 156.49-58.79L156.49-58.79Q161.38-58.79 164.18-56.49 166.99-54.2 166.99-50.05L166.99-50.05Q166.99-47.71 166.06-45.46 165.14-43.21 163.38-41.21 161.62-39.21 159.16-37.48 156.69-35.74 153.61-34.47L153.61-34.47Q149.8-32.86 145.21-32.06 140.63-31.25 134.77-31.25L134.77-31.25Q133.35-27.29 132.54-23.02 131.74-18.75 131.74-14.31L131.74-14.31Q131.74-7.52 134.59-4.52 137.45-1.51 143.6-1.51L143.6-1.51Q148.73-1.51 153.37-3.49 158.01-5.47 161.96-8.69 165.92-11.91 169.19-16.04 172.46-20.17 174.9-24.46L174.9-24.46 177.44-28.96 178.76-28.03 176.22-23.54Q173.19-18.21 169.6-13.72 166.02-9.23 161.79-5.98 157.57-2.73 152.76-0.9 147.95 0.93 142.53 0.93ZM157.86-56.84L157.86-56.84Q154.79-56.84 151.59-55.03 148.39-53.22 145.41-50.02 142.43-46.83 139.84-42.48 137.26-38.13 135.35-33.01L135.35-33.01Q140.72-33.11 144.53-33.96 148.34-34.81 151.17-36.13L151.17-36.13Q153.42-37.16 155.54-38.79 157.67-40.43 159.3-42.53 160.94-44.63 161.94-47.07 162.94-49.51 162.94-52.15L162.94-52.15Q162.94-53.47 162.55-54.35 162.16-55.22 161.47-55.79 160.79-56.35 159.86-56.59 158.94-56.84 157.86-56.84ZM213.92-54.39L213.92-54.39Q213.92-55.18 212.92-55.98 211.91-56.79 210.01-56.79L210.01-56.79Q208.06-56.79 205.76-55.59 203.47-54.39 200.54-51.37 197.61-48.34 193.97-43.12 190.33-37.89 185.74-29.79L185.74-29.79 183.3-25.49 174.07 0 166.8 0 187.89-57.86 195.12-57.86 186.57-34.42Q190.58-41.31 193.9-45.97 197.22-50.63 200.05-53.49 202.88-56.35 205.37-57.57 207.86-58.79 210.25-58.79L210.25-58.79Q213.48-58.79 215.31-56.88 217.14-54.98 217.14-51.9L217.14-51.9Q217.14-50.63 216.82-49.49 216.5-48.34 215.89-47.51 215.28-46.68 214.4-46.19 213.53-45.7 212.45-45.7L212.45-45.7Q211.67-45.7 210.91-45.95 210.16-46.19 209.57-46.7 208.98-47.22 208.62-47.95 208.25-48.68 208.25-49.66L208.25-49.66Q208.25-50.44 208.52-51.25 208.79-52.05 209.28-52.66 209.77-53.27 210.45-53.66 211.13-54.05 211.96-54.05L211.96-54.05Q212.5-54.05 212.99-53.96L212.99-53.96Q213.09-53.86 213.26-53.78 213.43-53.71 213.53-53.71L213.53-53.71Q213.92-53.71 213.92-54.39Z" transform="translate(0, 78.55999755859375)"></path></g> </g></g> </g></g></g><defs v-gra="od"></defs></g></svg>