<svg xmlns="http://www.w3.org/2000/svg" xmlns:xlink="http://www.w3.org/1999/xlink" version="1.0" x="0" y="0" width="2400" height="1441.3803842679051" viewBox="49.058604125976565 52.36559951782227 241.88279937744142 145.26880096435548" preserveAspectRatio="xMidYMid meet" color-interpolation-filters="sRGB"><g><defs><linearGradient id="92" x1="0%" y1="0%" x2="100%" y2="0%"><stop offset="0%" stop-color="#fa71cd"></stop> <stop offset="100%" stop-color="#9b59b6"></stop></linearGradient><linearGradient id="93" x1="0%" y1="0%" x2="100%" y2="0%"><stop offset="0%" stop-color="#f9d423"></stop> <stop offset="100%" stop-color="#f83600"></stop></linearGradient><linearGradient id="94" x1="0%" y1="0%" x2="100%" y2="0%"><stop offset="0%" stop-color="#0064d2"></stop> <stop offset="100%" stop-color="#1cb0f6"></stop></linearGradient><linearGradient id="95" x1="0%" y1="0%" x2="100%" y2="0%"><stop offset="0%" stop-color="#f00978"></stop> <stop offset="100%" stop-color="#3f51b1"></stop></linearGradient><linearGradient id="96" x1="0%" y1="0%" x2="100%" y2="0%"><stop offset="0%" stop-color="#7873f5"></stop> <stop offset="100%" stop-color="#ec77ab"></stop></linearGradient><linearGradient id="97" x1="0%" y1="0%" x2="100%" y2="0%"><stop offset="0%" stop-color="#f9d423"></stop> <stop offset="100%" stop-color="#e14fad"></stop></linearGradient><linearGradient id="98" x1="0%" y1="0%" x2="100%" y2="0%"><stop offset="0%" stop-color="#009efd"></stop> <stop offset="100%" stop-color="#2af598"></stop></linearGradient><linearGradient id="99" x1="0%" y1="0%" x2="100%" y2="0%"><stop offset="0%" stop-color="#ffcc00"></stop> <stop offset="100%" stop-color="#00b140"></stop></linearGradient><linearGradient id="100" x1="0%" y1="0%" x2="100%" y2="0%"><stop offset="0%" stop-color="#d51007"></stop> <stop offset="100%" stop-color="#ff8177"></stop></linearGradient><linearGradient id="102" x1="0%" y1="0%" x2="100%" y2="0%"><stop offset="0%" stop-color="#a2b6df"></stop> <stop offset="100%" stop-color="#0c3483"></stop></linearGradient><linearGradient id="103" x1="0%" y1="0%" x2="100%" y2="0%"><stop offset="0%" stop-color="#7ac5d8"></stop> <stop offset="100%" stop-color="#eea2a2"></stop></linearGradient><linearGradient id="104" x1="0%" y1="0%" x2="100%" y2="0%"><stop offset="0%" stop-color="#00ecbc"></stop> <stop offset="100%" stop-color="#007adf"></stop></linearGradient><linearGradient id="105" x1="0%" y1="0%" x2="100%" y2="0%"><stop offset="0%" stop-color="#b88746"></stop> <stop offset="100%" stop-color="#fdf5a6"></stop></linearGradient></defs><g fill="#fff" class="bordersvg b-d1" transform="translate(51.43000030517578,54.73699951171875)"><polyline stroke="#fff" stroke-width="3" fill-opacity="0" points="118.56999969482422,20 118.56999969482422,0 0,0 0,140.5260009765625 118.56999969482422,140.5260009765625 118.56999969482422,120.5260009765625"></polyline> <g transform="translate(0,20)"><g><rect stroke-width="2" class="i-icon-bg" x="0" y="0" width="237.13999938964844" height="100.5260009765625" fill-opacity="0"></rect> </g> <g transform="translate(10,3)"><g fill-rule="" class="tp-name" transform="translate(0,0)"><g transform="scale(1)"><g><path d="M29.59-43.65L29.59-43.65Q24.56-43.02 20.51-40.8 16.46-38.57 13.6-35.03 10.74-31.49 9.2-26.81 7.67-22.12 7.67-16.55L7.67-16.55Q7.67-8.45 11.04-4.54 14.4-0.63 21.34-0.63L21.34-0.63Q25.98-0.63 30.64-2.25 35.3-3.86 39.65-6.91 43.99-9.96 47.92-14.38 51.86-18.8 55.03-24.46L55.03-24.46 57.57-28.96 58.84-28.03 56.35-23.54Q52.83-17.19 48.66-12.45 44.48-7.71 39.87-4.54 35.25-1.37 30.25 0.22 25.24 1.81 20.12 1.81L20.12 1.81Q15.43 1.81 11.72 0.44 8.01-0.93 5.4-3.49 2.78-6.05 1.39-9.69 0-13.33 0-17.82L0-17.82Q0-23.24 2-27.83 4-32.42 7.59-35.86 11.18-39.31 16.21-41.48 21.24-43.65 27.29-44.19L27.29-44.19Q23.63-46.24 21.68-49.76 19.73-53.27 19.73-57.71L19.73-57.71Q19.73-62.01 21.53-65.82 23.34-69.63 26.44-72.46 29.54-75.29 33.69-76.93 37.84-78.56 42.53-78.56L42.53-78.56Q45.51-78.56 48.02-77.73 50.54-76.9 52.37-75.39 54.2-73.88 55.2-71.8 56.2-69.73 56.2-67.24L56.2-67.24Q56.2-62.55 53.3-58.76 50.39-54.98 45.46-52.15L45.46-52.15 44.78-53.61Q46.68-54.69 48.19-56.2 49.71-57.71 50.76-59.55 51.81-61.38 52.39-63.45 52.98-65.53 52.98-67.68L52.98-67.68Q52.98-72.07 50.66-74.37 48.34-76.66 43.99-76.66L43.99-76.66Q40.19-76.66 36.79-74.93 33.4-73.19 30.86-70.24 28.32-67.29 26.83-63.35 25.34-59.42 25.34-55.03L25.34-55.03Q25.34-51.22 26.46-48.46 27.59-45.7 29.64-44.53L29.64-44.53Q29.88-44.63 30.42-44.73 30.96-44.82 31.45-44.82L31.45-44.82Q32.81-44.82 32.81-44.14L32.81-44.14Q32.81-43.36 31.4-43.36L31.4-43.36Q30.91-43.36 30.42-43.46 29.93-43.55 29.59-43.65ZM115.63-58.45L116.94-56.49 71.19-9.03Q72.22-9.47 73.44-9.74 74.66-10.01 76.07-10.01L76.07-10.01Q78.27-10.01 80.69-9.52 83.11-9.03 85.57-8.3 88.04-7.57 90.41-6.74 92.77-5.91 94.9-5.18 97.02-4.44 98.78-3.96 100.54-3.47 101.76-3.47L101.76-3.47Q102.93-3.47 103.98-3.61 105.03-3.76 106.05-4.13 107.08-4.49 108.08-5.15 109.08-5.81 110.16-6.79L110.16-6.79Q113.09-9.57 116.28-13.94 119.48-18.31 123.14-24.46L123.14-24.46 125.83-28.96 127.1-28.03 124.41-23.54Q120.56-17.04 117.38-12.5 114.21-7.96 111.13-5.03L111.13-5.03Q109.23-3.22 107.4-2.05 105.57-0.88 103.66-0.22 101.76 0.44 99.66 0.68 97.56 0.93 95.07 0.93L95.07 0.93Q93.21 0.93 91.11 0.46 89.01 0 86.84-0.71 84.67-1.42 82.47-2.25 80.27-3.08 78.13-3.78 75.98-4.49 73.95-4.96 71.92-5.42 70.12-5.42L70.12-5.42Q68.85-5.42 68.04-5.05 67.24-4.69 66.43-3.91 65.63-3.13 64.53-1.93 63.43-0.73 61.57 0.93L61.57 0.93 60.45-0.93 109.67-52.34Q106.54-50.34 103.54-49.17 100.54-48 97.51-48L97.51-48Q95.7-48 93.85-48.46 91.99-48.93 90.14-49.63 88.28-50.34 86.55-51.17 84.81-52 83.33-52.71 81.84-53.42 80.62-53.88 79.39-54.35 78.61-54.35L78.61-54.35Q77.39-54.35 75.59-52.81 73.78-51.27 71.51-48.36 69.24-45.46 66.53-41.21 63.82-36.96 60.79-31.54L60.79-31.54 58.2-27 56.93-27.88 59.52-32.47Q63.48-39.55 66.6-44.56 69.73-49.56 72.46-52.76 75.2-55.96 77.81-57.45 80.42-58.94 83.4-58.94L83.4-58.94Q86.13-58.94 88.62-57.93 91.11-56.93 93.53-55.76 95.95-54.59 98.36-53.59 100.78-52.59 103.42-52.59L103.42-52.59Q105.96-52.59 108.94-53.86 111.91-55.13 115.63-58.45L115.63-58.45ZM142.53 0.93L142.53 0.93Q133.69 0.93 128.91-3.69 124.12-8.3 124.12-17.43L124.12-17.43Q124.12-19.92 124.49-22.71 124.85-25.49 125.63-28.42L125.63-28.42Q127.39-34.96 130.59-40.53 133.79-46.09 137.94-50.15 142.09-54.2 146.88-56.49 151.66-58.79 156.49-58.79L156.49-58.79Q161.38-58.79 164.18-56.49 166.99-54.2 166.99-50.05L166.99-50.05Q166.99-47.71 166.06-45.46 165.14-43.21 163.38-41.21 161.62-39.21 159.16-37.48 156.69-35.74 153.61-34.47L153.61-34.47Q149.8-32.86 145.21-32.06 140.63-31.25 134.77-31.25L134.77-31.25Q133.35-27.29 132.54-23.02 131.74-18.75 131.74-14.31L131.74-14.31Q131.74-7.52 134.59-4.52 137.45-1.51 143.6-1.51L143.6-1.51Q148.73-1.51 153.37-3.49 158.01-5.47 161.96-8.69 165.92-11.91 169.19-16.04 172.46-20.17 174.9-24.46L174.9-24.46 177.44-28.96 178.76-28.03 176.22-23.54Q173.19-18.21 169.6-13.72 166.02-9.23 161.79-5.98 157.57-2.73 152.76-0.9 147.95 0.93 142.53 0.93ZM157.86-56.84L157.86-56.84Q154.79-56.84 151.59-55.03 148.39-53.22 145.41-50.02 142.43-46.83 139.84-42.48 137.26-38.13 135.35-33.01L135.35-33.01Q140.72-33.11 144.53-33.96 148.34-34.81 151.17-36.13L151.17-36.13Q153.42-37.16 155.54-38.79 157.67-40.43 159.3-42.53 160.94-44.63 161.94-47.07 162.94-49.51 162.94-52.15L162.94-52.15Q162.94-53.47 162.55-54.35 162.16-55.22 161.47-55.79 160.79-56.35 159.86-56.59 158.94-56.84 157.86-56.84ZM213.92-54.39L213.92-54.39Q213.92-55.18 212.92-55.98 211.91-56.79 210.01-56.79L210.01-56.79Q208.06-56.79 205.76-55.59 203.47-54.39 200.54-51.37 197.61-48.34 193.97-43.12 190.33-37.89 185.74-29.79L185.74-29.79 183.3-25.49 174.07 0 166.8 0 187.89-57.86 195.12-57.86 186.57-34.42Q190.58-41.31 193.9-45.97 197.22-50.63 200.05-53.49 202.88-56.35 205.37-57.57 207.86-58.79 210.25-58.79L210.25-58.79Q213.48-58.79 215.31-56.88 217.14-54.98 217.14-51.9L217.14-51.9Q217.14-50.63 216.82-49.49 216.5-48.34 215.89-47.51 215.28-46.68 214.4-46.19 213.53-45.7 212.45-45.7L212.45-45.7Q211.67-45.7 210.91-45.95 210.16-46.19 209.57-46.7 208.98-47.22 208.62-47.95 208.25-48.68 208.25-49.66L208.25-49.66Q208.25-50.44 208.52-51.25 208.79-52.05 209.28-52.66 209.77-53.27 210.45-53.66 211.13-54.05 211.96-54.05L211.96-54.05Q212.5-54.05 212.99-53.96L212.99-53.96Q213.09-53.86 213.26-53.78 213.43-53.71 213.53-53.71L213.53-53.71Q213.92-53.71 213.92-54.39Z" transform="translate(0, 78.55999755859375)"></path></g> </g></g> <g fill-rule="" class="tp-slogan" transform="translate(4.999992370605469,86.3699951171875)"><rect x="0" height="1" y="3.580000400543213" width="77.9950008392334"></rect> <rect height="1" y="3.580000400543213" width="77.9950008392334" x="129.14499855041504"></rect> <g transform="translate(80.9950008392334,0)"><g transform="scale(1)"><path d="M2.06-3.20L4.43-3.20L4.06-4.40Q3.84-5.06 3.65-5.72Q3.46-6.37 3.26-7.06L3.26-7.06L3.22-7.06Q3.04-6.37 2.84-5.72Q2.65-5.06 2.44-4.40L2.44-4.40L2.06-3.20ZM5.42 0L4.68-2.40L1.81-2.40L1.06 0L0.04 0L2.70-7.87L3.83-7.87L6.49 0L5.42 0ZM8.88 0L6.36-7.87L7.43-7.87L8.69-3.62Q8.90-2.92 9.07-2.32Q9.23-1.72 9.46-1.02L9.46-1.02L9.50-1.02Q9.72-1.72 9.89-2.32Q10.06-2.92 10.26-3.62L10.26-3.62L11.52-7.87L12.54-7.87L10.04 0L8.88 0ZM16.40 0.14L16.40 0.14Q15.66 0.14 15.04-0.14Q14.42-0.43 13.98-0.97Q13.54-1.50 13.29-2.26Q13.04-3.02 13.04-3.97L13.04-3.97Q13.04-4.92 13.29-5.67Q13.54-6.42 13.98-6.94Q14.42-7.46 15.04-7.74Q15.66-8.02 16.40-8.02L16.40-8.02Q17.15-8.02 17.77-7.73Q18.38-7.45 18.83-6.93Q19.28-6.41 19.53-5.66Q19.78-4.91 19.78-3.97L19.78-3.97Q19.78-3.02 19.53-2.26Q19.28-1.50 18.83-0.97Q18.38-0.43 17.77-0.14Q17.15 0.14 16.40 0.14ZM16.40-0.73L16.40-0.73Q16.93-0.73 17.36-0.96Q17.78-1.19 18.09-1.61Q18.40-2.04 18.56-2.63Q18.73-3.23 18.73-3.97L18.73-3.97Q18.73-4.70 18.56-5.29Q18.40-5.88 18.09-6.29Q17.78-6.70 17.36-6.92Q16.93-7.14 16.40-7.14L16.40-7.14Q15.88-7.14 15.45-6.92Q15.02-6.70 14.72-6.29Q14.41-5.88 14.24-5.29Q14.08-4.70 14.08-3.97L14.08-3.97Q14.08-3.23 14.24-2.63Q14.41-2.04 14.72-1.61Q15.02-1.19 15.45-0.96Q15.88-0.73 16.40-0.73ZM21.01-3.94L21.01-3.94Q21.01-4.88 21.28-5.64Q21.54-6.40 22.01-6.92Q22.48-7.45 23.12-7.73Q23.76-8.02 24.52-8.02L24.52-8.02Q25.24-8.02 25.78-7.72Q26.32-7.43 26.66-7.04L26.66-7.04L26.10-6.41Q25.79-6.74 25.41-6.94Q25.03-7.14 24.53-7.14L24.53-7.14Q23.96-7.14 23.51-6.92Q23.05-6.70 22.73-6.28Q22.40-5.87 22.22-5.28Q22.04-4.69 22.04-3.96L22.04-3.96Q22.04-3.22 22.22-2.62Q22.39-2.03 22.70-1.61Q23.02-1.19 23.47-0.96Q23.92-0.73 24.48-0.73L24.48-0.73Q25.06-0.73 25.48-0.96Q25.91-1.19 26.29-1.61L26.29-1.61L26.86-1.00Q26.39-0.46 25.80-0.16Q25.21 0.14 24.46 0.14L24.46 0.14Q23.71 0.14 23.08-0.13Q22.45-0.41 21.99-0.93Q21.53-1.45 21.27-2.21Q21.01-2.98 21.01-3.94ZM29.30-3.20L31.67-3.20L31.30-4.40Q31.08-5.06 30.89-5.72Q30.70-6.37 30.50-7.06L30.50-7.06L30.46-7.06Q30.28-6.37 30.08-5.72Q29.89-5.06 29.68-4.40L29.68-4.40L29.30-3.20ZM32.66 0L31.92-2.40L29.05-2.40L28.30 0L27.28 0L29.94-7.87L31.07-7.87L33.73 0L32.66 0ZM36.00 0L36.00-7.03L33.62-7.03L33.62-7.87L39.38-7.87L39.38-7.03L37.01-7.03L37.01 0L36.00 0ZM39.76-1.02L40.36-1.72Q40.78-1.27 41.35-1.00Q41.92-0.73 42.53-0.73L42.53-0.73Q43.31-0.73 43.74-1.09Q44.17-1.44 44.17-2.02L44.17-2.02Q44.17-2.32 44.07-2.53Q43.97-2.74 43.79-2.89Q43.62-3.04 43.38-3.16Q43.14-3.28 42.86-3.41L42.86-3.41L41.74-3.90Q41.46-4.02 41.17-4.19Q40.88-4.36 40.66-4.60Q40.43-4.84 40.28-5.17Q40.14-5.50 40.14-5.93L40.14-5.93Q40.14-6.37 40.33-6.76Q40.51-7.14 40.84-7.42Q41.17-7.70 41.62-7.86Q42.07-8.02 42.61-8.02L42.61-8.02Q43.32-8.02 43.92-7.75Q44.52-7.48 44.94-7.04L44.94-7.04L44.40-6.40Q44.04-6.74 43.60-6.94Q43.16-7.14 42.61-7.14L42.61-7.14Q41.95-7.14 41.55-6.83Q41.15-6.53 41.15-5.99L41.15-5.99Q41.15-5.70 41.26-5.50Q41.38-5.30 41.57-5.15Q41.76-5.00 41.99-4.89Q42.22-4.78 42.46-4.68L42.46-4.68L43.57-4.20Q43.91-4.06 44.21-3.87Q44.51-3.68 44.72-3.44Q44.94-3.19 45.07-2.86Q45.19-2.53 45.19-2.10L45.19-2.10Q45.19-1.63 45.01-1.22Q44.82-0.82 44.47-0.51Q44.12-0.20 43.63-0.03Q43.14 0.14 42.52 0.14L42.52 0.14Q41.69 0.14 40.98-0.17Q40.27-0.48 39.76-1.02L39.76-1.02Z" transform="translate(-0.036000000000000004, 8.016)"></path></g></g></g></g></g></g><defs v-gra="od"></defs></g></svg>